<svg width="299" height="38" viewBox="0 0 299 38" fill="none" xmlns="http://www.w3.org/2000/svg">
<path d="M27.2766 8.43995C24.1289 8.18695 20.971 7.95419 17.8335 7.74168C17.5065 9.87696 17.1897 12.0628 16.8831 14.2083C16.5663 16.3739 16.2494 18.4991 15.9429 20.604C15.626 22.6786 15.299 24.743 15.0026 26.767C14.6858 28.7808 14.3588 30.7542 14.0624 32.7073C11.2826 32.4847 8.53351 32.2823 5.78439 32.1305C6.09099 30.3393 6.38736 28.4975 6.70417 26.5848C7.01077 24.6115 7.32758 22.5774 7.64439 20.4927C7.94077 18.3473 8.25758 16.1614 8.55395 13.9553C8.87077 11.7188 9.18758 9.47217 9.47373 7.22556C6.32604 7.07377 3.14769 6.99281 0 6.93209C0.265714 4.87776 0.531428 2.83356 0.797143 0.789347C3.07615 0.931025 5.35516 1.08282 7.64439 1.25486C9.9234 1.4269 12.1922 1.60905 14.4712 1.80133C16.7502 1.99361 19.0394 2.18589 21.3185 2.3984C23.5872 2.6008 25.8663 2.81332 28.1453 3.01571C27.8489 4.81704 27.573 6.6285 27.2766 8.43995ZM35.667 16.637C34.3385 16.5459 33.2143 16.9001 32.2127 17.7097C31.2316 18.5193 30.506 19.673 30.0257 21.1707C31.6506 21.0594 32.9792 20.9177 34.0012 20.7659C35.0232 20.5838 35.8101 20.3712 36.3824 20.1385C36.9445 19.8956 37.3124 19.6122 37.5168 19.3188C37.7008 19.0051 37.8234 18.6812 37.8132 18.2967C37.8234 17.9222 37.6394 17.5478 37.3022 17.2138C36.9649 16.8799 36.4131 16.6775 35.667 16.637ZM44.4151 31.5233C43.4545 32.2722 42.5551 32.8895 41.6456 33.3955C40.7565 33.9015 39.8265 34.2961 38.8658 34.5896C37.946 34.873 36.9445 35.045 35.8714 35.0855C34.8086 35.126 33.6639 35.1057 32.3865 34.9742C30.8331 34.7819 29.3819 34.3973 28.0839 33.7901C26.7656 33.2133 25.6312 32.4644 24.6808 31.5638C23.7405 30.653 23.0149 29.6208 22.4733 28.4469C21.9827 27.2831 21.7272 25.9979 21.717 24.6216C21.717 23.4477 21.8805 22.3345 22.1769 21.2314C22.4937 20.1081 22.9536 19.0961 23.5259 18.155C24.1085 17.1835 24.8443 16.3233 25.7027 15.5542C26.5612 14.775 27.4912 14.1071 28.5745 13.5909C29.6476 13.0546 30.8024 12.6802 32.0697 12.4373C33.3267 12.1843 34.6961 12.1236 36.1269 12.2146C37.527 12.326 38.784 12.5688 39.8878 12.9838C40.9813 13.3784 41.9113 13.8945 42.6573 14.4916C43.4238 15.0684 43.9961 15.6959 44.3743 16.4043C44.7626 17.1126 44.9568 17.7704 44.967 18.4788C44.967 19.5009 44.7217 20.4218 44.2414 21.2618C43.7713 22.0613 42.9231 22.7595 41.7478 23.387C40.5725 23.9638 38.9782 24.4192 36.9649 24.7329C34.9721 25.0567 32.458 25.2186 29.4432 25.2389C29.4636 26.7467 29.852 27.9004 30.6185 28.6695C31.3645 29.4487 32.5091 29.9142 33.991 30.0458C34.6859 30.1166 35.2889 30.1166 35.7999 30.0458C36.2904 29.9952 36.7299 29.894 37.1182 29.7827C37.5066 29.6613 37.8541 29.5297 38.1811 29.3577C38.4672 29.2059 38.7636 29.0642 39.0293 28.9326C39.3257 28.8011 39.6221 28.6999 39.9287 28.6088C40.225 28.5177 40.5725 28.5177 40.9915 28.5379C41.2368 28.5683 41.4923 28.629 41.7069 28.7808C41.9522 28.882 42.1668 29.0541 42.361 29.2463C43.0457 29.9952 43.7304 30.7542 44.4151 31.5233ZM63.3626 17.7198C62.0749 17.73 60.8792 17.9627 59.8061 18.4687C58.7433 18.9241 57.8337 19.592 57.0774 20.432C56.311 21.2618 55.708 22.2434 55.289 23.387C54.87 24.5204 54.6656 25.7651 54.6656 27.0908C54.6656 27.87 54.7371 28.5177 54.87 29.0642C55.0233 29.6107 55.1868 30.066 55.4116 30.4202C55.6569 30.7643 55.9431 31.0072 56.2292 31.1691C56.5665 31.3513 56.9037 31.4423 57.2716 31.4322C57.8644 31.4626 58.4265 31.2703 58.9886 30.906C59.52 30.481 60.031 29.9547 60.5113 29.2868C61.0018 28.5784 61.4617 27.779 61.8603 26.8884C62.2691 25.9979 62.6166 25.0466 62.9027 24.0245C63.2195 21.8791 63.5364 19.7843 63.8532 17.7198C63.6896 17.7198 63.5261 17.73 63.3626 17.7198ZM62.1465 32.8591C61.0632 34.2759 59.847 35.379 58.498 36.2088C57.1797 36.9475 55.708 37.3017 54.1137 37.2005C53.1633 37.1398 52.2435 36.8868 51.3544 36.4415C50.4755 36.0165 49.6886 35.4093 49.0038 34.6503C48.3293 33.861 47.7877 32.9097 47.3584 31.8168C46.9701 30.6834 46.7453 29.3981 46.7555 27.951C46.7657 25.836 47.2051 23.8828 48.0636 22.0613C48.9323 20.27 50.1689 18.7015 51.7427 17.4264C53.337 16.1209 55.1868 15.1292 57.3738 14.3904C59.5098 13.6415 61.891 13.2469 64.497 13.2368C65.7438 13.2165 67.0213 13.2469 68.2988 13.3582C69.6273 13.4594 70.8946 13.6618 72.1721 13.9654C71.8757 15.7566 71.6202 17.5782 71.334 19.4099C71.0786 21.2618 70.8128 23.1238 70.5471 25.0162C70.2814 26.939 70.0055 28.8719 69.7295 30.8352C69.4638 32.8288 69.2083 34.8122 68.9324 36.8565C67.5323 36.9172 66.1117 36.9779 64.6912 37.0386C64.2006 37.0386 63.8021 37.0083 63.4444 36.8868C63.1173 36.7654 62.8618 36.6035 62.6575 36.3808C62.4633 36.1683 62.3304 35.9153 62.2384 35.6218C62.1771 35.3182 62.1465 35.0248 62.1362 34.6503C62.1362 34.0735 62.1567 33.4663 62.1465 32.8591ZM73.889 36.5326C74.1854 34.4682 74.4306 32.4442 74.7168 30.4202C74.9927 28.4368 75.2687 26.4634 75.5446 24.5001C75.8001 22.5672 76.0658 20.6344 76.3315 18.7217C76.587 16.8293 76.8629 14.9571 77.1287 13.085C78.4879 13.0242 79.8573 12.9332 81.2166 12.8522C82.0444 12.8117 82.6882 12.9332 83.1379 13.2368C83.5978 13.51 83.843 14.0261 83.843 14.775C83.8328 15.2101 83.843 15.6655 83.843 16.1108C84.957 14.775 86.1527 13.7427 87.3791 13.0546C88.6463 12.3361 89.9238 11.9515 91.3035 11.8301C92.8058 11.739 94.0628 12.073 95.0541 12.8623C96.0352 13.6415 96.6689 14.8256 96.955 16.4245C98.1303 14.6434 99.4078 13.3177 100.798 12.4272C102.198 11.5366 103.792 11.0509 105.56 10.9497C106.674 10.8889 107.676 11.0407 108.565 11.4152C109.444 11.7593 110.19 12.3361 110.782 13.0647C111.355 13.7933 111.774 14.7244 111.988 15.8274C112.213 16.9204 112.254 18.1449 112.029 19.5515C111.682 21.9297 111.344 24.2876 111.007 26.6253C110.66 28.9124 110.312 31.1893 109.965 33.4562C107.349 33.6383 104.753 33.8509 102.147 34.0431C102.494 31.7055 102.821 29.3577 103.169 27.0099C103.496 24.6317 103.843 22.2434 104.18 19.8349C104.262 19.1973 104.293 18.6812 104.242 18.2562C104.231 17.821 104.16 17.5073 104.027 17.2442C103.904 17.0013 103.721 16.8293 103.496 16.7483C103.25 16.6471 102.964 16.5864 102.637 16.6168C102.106 16.637 101.585 16.7888 101.104 17.062C100.614 17.3252 100.164 17.6996 99.7246 18.1955C99.2851 18.6812 98.8866 19.2581 98.5493 19.9361C98.1712 20.5838 97.8646 21.3529 97.5989 22.1624C97.2923 24.2471 97.0163 26.3318 96.7302 28.4064C96.444 30.4708 96.1477 32.5353 95.8615 34.62C93.235 34.8527 90.629 35.0855 88.0332 35.3182C88.3602 32.849 88.6974 30.3899 89.0347 27.9409C89.3719 25.4919 89.6888 23.0429 90.026 20.604C90.118 19.9867 90.1384 19.4605 90.0976 19.0152C90.0873 18.6003 90.0158 18.2663 89.8829 18.0234C89.7705 17.7806 89.5763 17.6288 89.3311 17.5377C89.1062 17.4365 88.8099 17.396 88.493 17.4162C87.9616 17.4264 87.4506 17.5984 86.9601 17.8818C86.4695 18.155 85.9994 18.5395 85.5702 19.0253C85.1205 19.5313 84.7526 20.1081 84.3847 20.8266C84.027 21.5047 83.7 22.2636 83.4445 23.1137C83.1379 25.2085 82.8619 27.3134 82.5656 29.4589C82.2692 31.5739 81.9728 33.7294 81.6969 35.885C79.0909 36.1076 76.495 36.3201 73.889 36.5326Z" fill="#565656"/>
<path d="M149.71 9.79601C149.382 10.0996 149.066 10.3324 148.759 10.4842C148.473 10.5955 148.125 10.6461 147.686 10.6258C147.298 10.5752 146.899 10.4437 146.511 10.1907C146.102 9.93768 145.662 9.63409 145.162 9.34061C144.681 9.03702 144.119 8.74354 143.475 8.45007C142.862 8.18695 142.075 8.00479 141.217 7.93395C140.43 7.853 139.725 7.90359 139.081 8.04527C138.509 8.18695 137.998 8.41971 137.579 8.74354C137.201 9.04714 136.884 9.44181 136.659 9.87696C136.475 10.3324 136.373 10.8687 136.373 11.4152C136.373 12.0224 136.546 12.5385 136.935 12.9534C137.313 13.3683 137.814 13.7731 138.468 14.1172C139.101 14.4613 139.858 14.7648 140.655 15.0988C141.452 15.3923 142.28 15.7161 143.128 16.0602C143.997 16.4144 144.824 16.8192 145.622 17.2341C146.439 17.6591 147.165 18.1955 147.768 18.7925C148.432 19.3997 148.912 20.1284 149.28 20.9481C149.669 21.7577 149.842 22.7292 149.801 23.8423C149.791 25.4312 149.403 26.9087 148.728 28.2647C148.064 29.6107 147.103 30.7441 145.867 31.6852C144.63 32.6162 143.138 33.3145 141.411 33.7598C139.653 34.1848 137.712 34.3164 135.545 34.1241C134.462 34.0431 133.389 33.861 132.295 33.5675C131.232 33.3246 130.2 32.9907 129.178 32.5859C128.207 32.1912 127.277 31.7459 126.429 31.2197C125.57 30.7441 124.845 30.1976 124.262 29.6107C125.264 28.6189 126.265 27.6069 127.277 26.6051C127.512 26.3622 127.798 26.18 128.146 26.0383C128.514 25.9068 128.871 25.836 129.219 25.8562C129.72 25.8663 130.169 26.0282 130.629 26.3318C131.079 26.6051 131.559 26.939 132.121 27.3033C132.673 27.6373 133.297 27.9814 134.002 28.285C134.727 28.6088 135.637 28.8011 136.7 28.8618C138.263 28.9731 139.469 28.6999 140.297 28.0623C141.176 27.4248 141.636 26.3925 141.656 25.0365C141.667 24.3888 141.472 23.8322 141.074 23.3971C140.716 22.9417 140.195 22.5571 139.592 22.2535C138.958 21.9297 138.263 21.6261 137.456 21.3731C136.649 21.0796 135.811 20.8064 134.983 20.5129C134.155 20.2093 133.337 19.8652 132.51 19.4807C131.712 19.0759 131.007 18.58 130.363 17.983C129.74 17.3656 129.26 16.6269 128.851 15.7768C128.493 14.8964 128.32 13.8237 128.309 12.5587C128.32 11.0812 128.636 9.64421 129.27 8.30839C129.914 6.95233 130.834 5.75819 132.029 4.76644C133.215 3.7747 134.656 3.03595 136.362 2.57044C138.069 2.11505 139.97 2.01385 142.116 2.25672C143.169 2.37816 144.221 2.59068 145.254 2.91451C146.296 3.21811 147.247 3.5723 148.125 4.0277C149.015 4.45273 149.822 4.93848 150.537 5.48495C151.253 6.0213 151.856 6.56778 152.367 7.13449C151.478 8.02503 150.588 8.89534 149.71 9.79601ZM163.128 16.4549C164.375 15.453 165.693 14.7142 167.083 14.2892C168.473 13.8743 169.894 13.6921 171.324 13.763C172.438 13.8035 173.46 14.016 174.339 14.4005C175.249 14.7547 175.985 15.2911 176.567 15.9893C177.139 16.6775 177.538 17.5276 177.753 18.5598C177.957 19.592 177.926 20.7659 177.671 22.1119C177.231 24.5103 176.812 26.9289 176.414 29.4285C176.015 31.9483 175.617 34.5188 175.228 37.1499C172.592 37.0184 169.934 36.8565 167.288 36.6541C167.686 34.1443 168.074 31.6447 168.483 29.1755C168.872 26.7164 169.291 24.2977 169.71 21.9297C169.822 21.3326 169.873 20.8368 169.842 20.4218C169.832 19.9968 169.75 19.6527 169.618 19.4099C169.475 19.1569 169.27 18.9545 168.994 18.8533C168.718 18.7217 168.391 18.661 167.982 18.6306C167.451 18.6104 166.899 18.7116 166.286 18.9545C165.703 19.1973 165.141 19.5313 164.559 19.9867C164.027 20.4421 163.486 21.0088 162.975 21.6969C162.494 22.3547 162.075 23.1137 161.759 23.9537C161.401 25.927 161.074 27.9308 160.726 29.9446C160.389 31.9483 160.052 33.9824 159.735 36.0165C157.088 35.7838 154.441 35.5206 151.794 35.2879C152.234 32.6061 152.653 29.9041 153.123 27.2021C153.583 24.5204 154.032 21.8386 154.492 19.167C154.973 16.5156 155.473 13.8642 155.954 11.2431C156.444 8.64234 156.935 6.06178 157.436 3.49134C160.154 3.81518 162.873 4.12889 165.591 4.42237C165.172 6.38562 164.753 8.35899 164.344 10.3425C163.925 12.3462 163.516 14.4005 163.128 16.4549ZM197.078 17.7097C195.79 17.7704 194.615 18.0943 193.532 18.6306C192.469 19.1569 191.529 19.8551 190.742 20.7153C189.945 21.5553 189.321 22.5571 188.851 23.7108C188.381 24.8442 188.156 26.0687 188.115 27.3742C188.075 28.1129 188.146 28.7403 188.259 29.2666C188.381 29.7928 188.555 30.2077 188.759 30.5316C188.994 30.8453 189.25 31.0578 189.556 31.1995C189.863 31.331 190.221 31.3816 190.599 31.3411C191.171 31.3108 191.743 31.0881 192.275 30.6732C192.827 30.2381 193.348 29.6815 193.849 28.9933C194.36 28.2951 194.83 27.5057 195.259 26.6051C195.678 25.7348 196.077 24.7936 196.393 23.8019C196.772 21.7273 197.15 19.6932 197.559 17.6895C197.395 17.6895 197.231 17.7097 197.078 17.7097ZM195.402 32.2317C194.298 33.6687 193.072 34.8123 191.713 35.7534C190.374 36.6541 188.913 37.1803 187.298 37.3017C186.358 37.3827 185.448 37.2612 184.559 36.9678C183.68 36.6338 182.914 36.1177 182.249 35.4093C181.575 34.6807 181.064 33.7598 180.686 32.677C180.297 31.5537 180.134 30.2786 180.164 28.8112C180.246 26.6961 180.747 24.7127 181.677 22.881C182.648 21.0493 183.936 19.4605 185.55 18.1246C187.206 16.7585 189.127 15.6756 191.304 14.8357C193.471 13.9755 195.842 13.429 198.386 13.257C199.623 13.1659 200.88 13.1153 202.147 13.1558C203.404 13.1862 204.641 13.3278 205.847 13.5707C205.53 15.3518 205.193 17.1126 204.886 18.8937C204.549 20.6951 204.232 22.4964 203.905 24.2977C203.598 26.1193 203.292 27.951 202.985 29.7827C202.689 31.6447 202.392 33.4865 202.096 35.3688C200.665 35.5308 199.265 35.7129 197.865 35.8748C197.375 35.9254 196.945 35.9254 196.608 35.8647C196.291 35.7635 196.026 35.6421 195.831 35.4599C195.658 35.298 195.525 35.0652 195.433 34.8021C195.382 34.5289 195.351 34.2455 195.361 33.9116C195.361 33.3651 195.382 32.7883 195.402 32.2317ZM224.784 16.7686C224.293 16.465 223.752 16.2626 223.159 16.1715C222.587 16.0804 222.035 16.0399 221.493 16.0804C220.604 16.1513 219.756 16.465 218.989 17.0519C218.223 17.5984 217.559 18.3371 216.976 19.1872C216.414 20.0575 215.954 21.029 215.627 22.0815C215.29 23.1744 215.126 24.237 215.096 25.3198C215.085 26.7063 215.3 27.6778 215.791 28.2546C216.281 28.8011 216.915 29.0338 217.732 28.9529C218.274 28.9124 218.826 28.6796 219.408 28.2951C219.991 27.9206 220.573 27.4349 221.115 26.8075C221.677 26.18 222.188 25.4919 222.679 24.6924C223.169 23.8828 223.588 22.9923 223.936 22.0916C224.212 20.351 224.488 18.5699 224.784 16.7686ZM234.789 0C234.35 2.99547 233.92 5.93023 233.512 8.81438C233.093 11.6277 232.684 14.3803 232.285 17.0722C231.877 19.7033 231.478 22.294 231.1 24.8037C230.701 27.2831 230.313 29.7017 229.925 32.1001C228.524 32.2317 227.104 32.3835 225.694 32.5353C225.203 32.5859 224.815 32.5656 224.467 32.5049C224.15 32.4543 223.895 32.3329 223.68 32.1811C223.496 32.0293 223.353 31.8471 223.282 31.6144C223.21 31.3816 223.19 31.1286 223.179 30.8453C223.179 30.2786 223.169 29.7119 223.19 29.1148C221.974 30.4911 220.655 31.6346 219.194 32.515C217.732 33.4157 216.179 33.9723 214.534 34.1747C213.45 34.3063 212.469 34.2658 211.56 34.0836C210.65 33.8711 209.894 33.4258 209.24 32.8591C208.606 32.2621 208.126 31.4322 207.768 30.4304C207.431 29.3981 207.278 28.1534 207.318 26.6759C207.329 25.4008 207.523 24.1561 207.87 22.9113C208.228 21.6868 208.708 20.523 209.311 19.3997C209.904 18.2967 210.609 17.2847 211.427 16.3638C212.244 15.3923 213.113 14.5928 214.074 13.8945C215.034 13.1558 216.036 12.579 217.109 12.1337C218.172 11.6783 219.245 11.4152 220.369 11.3039C221.442 11.2128 222.403 11.3039 223.241 11.5265C224.079 11.7593 224.804 12.1134 225.438 12.579C225.755 10.6562 226.051 8.7233 226.378 6.78029C226.695 4.78668 227.012 2.78296 227.339 0.779228C229.822 0.495872 232.316 0.232756 234.789 0ZM246.215 27.8397C247.094 27.9004 247.87 27.7486 248.555 27.3944C249.24 27.02 249.802 26.4836 250.252 25.8056C250.722 25.0871 251.069 24.2269 251.294 23.2554C251.519 22.2535 251.631 21.1808 251.611 19.9968C251.55 18.3776 251.274 17.1936 250.742 16.4549C250.241 15.7465 249.414 15.3417 248.279 15.3113C247.411 15.2911 246.654 15.5238 245.99 15.9691C245.316 16.4144 244.743 17.0115 244.273 17.8008C243.823 18.5395 243.466 19.4402 243.21 20.4623C242.975 21.4541 242.863 22.5268 242.883 23.6298C242.893 25.0871 243.169 26.1497 243.67 26.7973C244.202 27.445 245.06 27.7992 246.215 27.8397ZM245.602 32.0799C244.13 31.9787 242.75 31.7257 241.442 31.3513C240.185 30.9971 239.071 30.5012 238.111 29.8333C237.17 29.1755 236.445 28.3457 235.883 27.3438C235.361 26.3116 235.086 25.1073 235.096 23.7108C235.096 21.8589 235.464 20.1081 236.21 18.4889C236.976 16.8293 237.988 15.3822 239.265 14.1374C240.533 12.8826 241.994 11.8908 243.639 11.1723C245.316 10.4538 247.063 10.1198 248.892 10.1502C250.303 10.1806 251.621 10.4437 252.848 10.9294C254.105 11.4253 255.188 12.1134 256.108 12.9939C257.038 13.8743 257.804 14.9571 258.376 16.2221C258.959 17.4466 259.276 18.8431 259.337 20.432C259.398 22.4154 259.092 24.2168 258.376 25.7955C257.681 27.3539 256.68 28.6088 255.443 29.6511C254.156 30.6226 252.674 31.3108 250.977 31.7257C249.281 32.1406 247.492 32.2418 245.602 32.0799ZM299 12.2045C298.264 14.2892 297.508 16.4245 296.731 18.5497C295.934 20.7254 295.137 22.9113 294.319 25.0871C293.512 27.2932 292.674 29.4791 291.846 31.6549C291.029 33.8003 290.211 35.9254 289.393 38C287.319 37.7065 285.244 37.4029 283.21 37.1196C282.904 37.0791 282.628 36.9374 282.434 36.7148C282.229 36.5124 282.076 36.1379 281.984 35.7028C281.565 33.5675 281.146 31.4727 280.737 29.3678C280.288 27.2628 279.858 25.168 279.429 23.0834C279.358 22.7292 279.266 22.4053 279.194 22.0714C279.153 21.6969 279.092 21.3326 279.041 20.9784C278.928 21.3326 278.785 21.6767 278.683 22.0208C278.56 22.3648 278.438 22.6887 278.305 23.0631C277.579 25.0061 276.864 26.9491 276.108 28.9023C275.372 30.7846 274.636 32.677 273.88 34.5188C273.553 35.2474 272.991 35.5611 272.245 35.4498C270.262 35.1361 268.3 34.8325 266.338 34.5188C265.908 32.5859 265.479 30.6631 265.05 28.7403C264.6 26.7973 264.181 24.8543 263.732 22.9113C263.292 20.9481 262.842 18.9646 262.434 17.0013C261.984 15.0178 261.555 13.0141 261.136 11.0104C263.037 11.1217 264.999 11.2128 266.961 11.3241C267.431 11.3646 267.83 11.5164 268.177 11.7694C268.525 12.0325 268.749 12.3563 268.831 12.7004C269.066 14.5119 269.301 16.3031 269.526 18.1044C269.751 19.9057 269.986 21.6969 270.201 23.4881C270.395 25.0567 270.548 26.5747 270.64 28.0421C270.906 27.3539 271.192 26.6455 271.499 25.9169C271.795 25.1984 272.102 24.4394 272.408 23.7007C273.052 21.9499 273.645 20.2093 274.278 18.4485C274.881 16.6674 275.484 14.9065 276.077 13.1153C276.2 12.7611 276.445 12.4879 276.813 12.2652C277.15 12.0325 277.559 11.9212 278.019 11.9617C279.123 12.0021 280.216 12.0628 281.35 12.1236C281.882 12.1438 282.332 12.2754 282.679 12.5385C283.026 12.8117 283.241 13.1052 283.343 13.4695C283.752 15.3012 284.171 17.1632 284.59 19.0455C284.948 20.9481 285.357 22.8506 285.714 24.7531C285.898 25.6133 286.082 26.4431 286.215 27.2628C286.348 28.0522 286.511 28.882 286.634 29.7119C286.828 28.9326 287.033 28.1433 287.257 27.3337C287.493 26.5443 287.738 25.7145 287.983 24.8948C288.504 23.0024 289.005 21.11 289.485 19.2277C289.976 17.3656 290.436 15.4935 290.896 13.6618C290.998 13.3177 291.213 12.9939 291.591 12.7814C291.959 12.5182 292.378 12.3867 292.848 12.3766C294.851 12.3462 296.925 12.2956 299 12.2045Z" fill="#565656"/>
</svg>
