<svg width="14" height="14" viewBox="0 0 14 14" fill="none" xmlns="http://www.w3.org/2000/svg">
<g clip-path="url(#clip0_1780_1974)">
<path d="M4.08333 0H2.33333C1.04467 0 0 1.04467 0 2.33333V4.08333C0 5.372 1.04467 6.41667 2.33333 6.41667H4.08333C5.372 6.41667 6.41667 5.372 6.41667 4.08333V2.33333C6.41667 1.04467 5.372 0 4.08333 0Z" fill="#E3E3E3"/>
<path d="M11.6663 0H9.91634C8.62768 0 7.58301 1.04467 7.58301 2.33333V4.08334C7.58301 5.372 8.62768 6.41667 9.91634 6.41667H11.6663C12.955 6.41667 13.9997 5.372 13.9997 4.08334V2.33333C13.9997 1.04467 12.955 0 11.6663 0Z" fill="#E3E3E3"/>
<path d="M4.08333 7.58337H2.33333C1.04467 7.58337 0 8.62804 0 9.91671V11.6667C0 12.9554 1.04467 14 2.33333 14H4.08333C5.372 14 6.41667 12.9554 6.41667 11.6667V9.91671C6.41667 8.62804 5.372 7.58337 4.08333 7.58337Z" fill="#E3E3E3"/>
<path d="M11.6663 7.58337H9.91634C8.62768 7.58337 7.58301 8.62804 7.58301 9.91671V11.6667C7.58301 12.9554 8.62768 14 9.91634 14H11.6663C12.955 14 13.9997 12.9554 13.9997 11.6667V9.91671C13.9997 8.62804 12.955 7.58337 11.6663 7.58337Z" fill="#E3E3E3"/>
</g>
<defs>
<clipPath id="clip0_1780_1974">
<rect width="14" height="14" fill="white"/>
</clipPath>
</defs>
</svg>
