<svg width="14" height="14" viewBox="0 0 14 14" fill="none" xmlns="http://www.w3.org/2000/svg">
<g clip-path="url(#clip0_1780_1953)">
<path d="M7.51514 8.87587L2.88639 13.5046C2.73079 13.668 2.54408 13.7986 2.33724 13.8887C2.1304 13.9789 1.90763 14.0267 1.68202 14.0295C1.45641 14.0322 1.23253 13.9898 1.02356 13.9048C0.814588 13.8197 0.624745 13.6937 0.465204 13.5341C0.305664 13.3746 0.17965 13.1848 0.0945795 12.9758C0.00950915 12.7668 -0.0328986 12.5429 -0.0301477 12.3173C-0.0273968 12.0917 0.0204572 11.8689 0.110598 11.6621C0.200738 11.4553 0.331343 11.2686 0.494727 11.113L5.12348 6.4842L7.51514 8.87587ZM9.97506 4.02487C9.65302 3.71708 9.2247 3.54531 8.77923 3.54531C8.33375 3.54531 7.90543 3.71708 7.58339 4.02487L5.95006 5.6582L8.34173 8.04987L9.97506 6.41654C10.2921 6.09932 10.4702 5.66919 10.4702 5.2207C10.4702 4.77222 10.2921 4.34209 9.97506 4.02487ZM2.83681 3.00112L3.74098 3.25895L3.99881 4.16312C4.04035 4.3082 4.12799 4.43582 4.2485 4.52666C4.369 4.61751 4.51581 4.66665 4.66673 4.66665C4.81764 4.66665 4.96445 4.61751 5.08495 4.52666C5.20546 4.43582 5.29311 4.3082 5.33464 4.16312L5.59248 3.25895L6.49664 3.00112C6.64173 2.95958 6.76934 2.87194 6.86019 2.75143C6.95104 2.63092 7.00017 2.48412 7.00017 2.3332C7.00017 2.18229 6.95104 2.03548 6.86019 1.91498C6.76934 1.79447 6.64173 1.70682 6.49664 1.66529L5.59248 1.40745L5.33464 0.503286C5.29311 0.358202 5.20546 0.230588 5.08495 0.139741C4.96445 0.0488946 4.81764 -0.000244141 4.66673 -0.000244141C4.51581 -0.000244141 4.369 0.0488946 4.2485 0.139741C4.12799 0.230588 4.04035 0.358202 3.99881 0.503286L3.74098 1.40745L2.83681 1.66529C2.69173 1.70682 2.56411 1.79447 2.47327 1.91498C2.38242 2.03548 2.33328 2.18229 2.33328 2.3332C2.33328 2.48412 2.38242 2.63092 2.47327 2.75143C2.56411 2.87194 2.69173 2.95958 2.83681 3.00112ZM9.83681 10.0011L10.741 10.259L10.9988 11.1631C11.0403 11.3082 11.128 11.4358 11.2485 11.5267C11.369 11.6175 11.5158 11.6666 11.6667 11.6666C11.8176 11.6666 11.9644 11.6175 12.085 11.5267C12.2055 11.4358 12.2931 11.3082 12.3346 11.1631L12.5925 10.259L13.4966 10.0011C13.6417 9.95958 13.7693 9.87193 13.8602 9.75143C13.951 9.63092 14.0002 9.48411 14.0002 9.3332C14.0002 9.18229 13.951 9.03548 13.8602 8.91498C13.7693 8.79447 13.6417 8.70682 13.4966 8.66529L12.5925 8.40745L12.3346 7.50329C12.2931 7.3582 12.2055 7.23059 12.085 7.13974C11.9644 7.04889 11.8176 6.99976 11.6667 6.99976C11.5158 6.99976 11.369 7.04889 11.2485 7.13974C11.128 7.23059 11.0403 7.3582 10.9988 7.50329L10.741 8.40745L9.83681 8.66529C9.69173 8.70682 9.56411 8.79447 9.47327 8.91498C9.38242 9.03548 9.33328 9.18229 9.33328 9.3332C9.33328 9.48411 9.38242 9.63092 9.47327 9.75143C9.56411 9.87193 9.69173 9.95958 9.83681 10.0011ZM10.3577 2.62487L11.1481 2.85062L11.3751 3.6422C11.412 3.76831 11.4888 3.87905 11.594 3.95784C11.6991 4.03662 11.827 4.0792 11.9584 4.0792C12.0898 4.0792 12.2177 4.03662 12.3228 3.95784C12.428 3.87905 12.5048 3.76831 12.5417 3.6422L12.7675 2.85179L13.5591 2.62487C13.6852 2.58794 13.7959 2.51114 13.8747 2.40597C13.9535 2.3008 13.9961 2.17294 13.9961 2.04154C13.9961 1.91013 13.9535 1.78227 13.8747 1.6771C13.7959 1.57194 13.6852 1.49513 13.5591 1.4582L12.7686 1.23245L12.5417 0.44087C12.5048 0.314763 12.428 0.20402 12.3228 0.125236C12.2177 0.0464511 12.0898 0.00386841 11.9584 0.00386841C11.827 0.00386841 11.6991 0.0464511 11.594 0.125236C11.4888 0.20402 11.412 0.314763 11.3751 0.44087L11.1493 1.23129L10.3577 1.4582C10.2316 1.49513 10.1209 1.57194 10.0421 1.6771C9.96331 1.78227 9.92073 1.91013 9.92073 2.04154C9.92073 2.17294 9.96331 2.3008 10.0421 2.40597C10.1209 2.51114 10.2316 2.58794 10.3577 2.62487Z" fill="white"/>
</g>
<defs>
<clipPath id="clip0_1780_1953">
<rect width="14" height="14" fill="white"/>
</clipPath>
</defs>
</svg>
