<svg width="14" height="14" viewBox="0 0 14 14" fill="none" xmlns="http://www.w3.org/2000/svg">
<g clip-path="url(#clip0_1780_2001)">
<path d="M10.2082 1.11792C9.55136 1.12814 8.90883 1.3115 8.34551 1.64949C7.78218 1.98749 7.31802 2.46814 6.99989 3.04292C6.68177 2.46814 6.21761 1.98749 5.65428 1.64949C5.09096 1.3115 4.44842 1.12814 3.79156 1.11792C2.74444 1.16341 1.75789 1.62148 1.04743 2.39206C0.336979 3.16263 -0.0396269 4.18306 -0.000105711 5.23042C-0.000105711 7.88284 2.79173 10.7797 5.13323 12.7438C5.65602 13.1831 6.31702 13.4239 6.99989 13.4239C7.68277 13.4239 8.34377 13.1831 8.86656 12.7438C11.2081 10.7797 13.9999 7.88284 13.9999 5.23042C14.0394 4.18306 13.6628 3.16263 12.9524 2.39206C12.2419 1.62148 11.2553 1.16341 10.2082 1.11792Z" fill="#E3E3E3"/>
</g>
<defs>
<clipPath id="clip0_1780_2001">
<rect width="14" height="14" fill="white"/>
</clipPath>
</defs>
</svg>
