<svg width="14" height="14" viewBox="0 0 14 14" fill="none" xmlns="http://www.w3.org/2000/svg">
<path d="M7 0C3.136 0 0 3.136 0 7C0 10.864 3.136 14 7 14C10.864 14 14 10.864 14 7C14 3.136 10.871 0 7 0ZM9.1 8.561L7.07 9.73C6.818 9.877 6.538 9.947 6.265 9.947C5.985 9.947 5.712 9.877 5.46 9.73C4.956 9.436 4.655 8.918 4.655 8.33V5.985C4.655 5.404 4.956 4.879 5.46 4.585C5.964 4.291 6.566 4.291 7.077 4.585L9.107 5.754C9.611 6.048 9.912 6.566 9.912 7.154C9.912 7.742 9.611 8.267 9.1 8.561Z" fill="white"/>
</svg>
