<svg width="15" height="11" viewBox="0 0 15 11" fill="none" xmlns="http://www.w3.org/2000/svg">
<path d="M10.39 2.21027L9.52228 0H11.0507C11.6319 0.00135478 12.2046 0.134793 12.7228 0.389583C13.2411 0.644373 13.6903 1.0134 14.0345 1.46699L14.5311 2.12408C14.7428 2.40376 14.897 2.72021 14.9855 3.05623H10.6216C10.5768 2.76684 10.4991 2.48313 10.39 2.21027ZM9.21431 2.65464L8.17241 0H6.82633L5.76739 2.72127C5.72677 2.83084 5.69305 2.9427 5.66641 3.05623H9.3399C9.30837 2.91954 9.26639 2.78531 9.21431 2.65464ZM7.48896 7.87713L9.24713 4.66626C9.29175 4.53968 9.32697 4.41017 9.35252 4.27873H5.60331C5.63168 4.43617 5.67391 4.59097 5.72952 4.74144L7.48896 7.87713ZM4.59359 2.27934L5.47709 0H3.95179C3.38257 0.00143951 2.8213 0.129439 2.31122 0.374136C1.80113 0.618832 1.35586 0.973692 1.00972 1.41137L0.491607 2.06785C0.263325 2.36182 0.10025 2.69832 0.0126215 3.05623H4.36703C4.41554 2.79058 4.49144 2.53032 4.59359 2.27934ZM10.6323 4.27873C10.5926 4.57082 10.5198 4.8578 10.4152 5.13447C10.4058 5.15892 8.04493 9.45843 8.04304 9.45904C7.99163 9.55577 7.91381 9.63698 7.81805 9.69384C7.7223 9.7507 7.61227 9.78104 7.49995 9.78154C7.38764 9.78205 7.27733 9.7527 7.18103 9.6967C7.08473 9.6407 7.00614 9.56019 6.95381 9.46393C6.95381 9.46393 4.57213 5.23899 4.56203 5.21271C4.44899 4.91117 4.37357 4.59761 4.33737 4.27873H0C0.11671 4.82566 0.410255 5.32237 0.838066 5.69682L5.88035 10.4077C6.32322 10.7902 6.8962 11.0011 7.48959 11C8.09556 10.9988 8.67979 10.7812 9.13038 10.3887L14.1386 5.7231C14.5774 5.34297 14.8793 4.83686 15 4.27873H10.6323Z" fill="white"/>
</svg>
